<svg width="17" height="17" viewBox="0 0 17 17" fill="none" xmlns="http://www.w3.org/2000/svg">
<path d="M8 17C9.10457 17 10 16.1046 10 15H6C6 16.1046 6.89543 17 8 17Z" fill="#1E2125"/>
<path d="M8.99516 2.09903C8.99836 2.06646 9 2.03342 9 2C9 1.44772 8.55228 1 8 1C7.44772 1 7 1.44772 7 2C7 2.03342 7.00164 2.06646 7.00484 2.09904C4.7202 2.56045 3.00002 4.57934 3.00002 7C3.00002 8.0976 2.5 13 1 14H15C13.5 13 13 8.0976 13 7C13 4.57932 11.2798 2.56042 8.99516 2.09903Z" fill="#1E2125"/>
<circle cx="12" cy="5" r="4.5" fill="#FFBE0A" stroke="white"/>
</svg>
