<svg width="370" height="265" viewBox="0 0 370 265" fill="none" xmlns="http://www.w3.org/2000/svg">
<rect x="179.078" y="7.16382" width="57.2975" height="28.6488" fill="#00A0F3"/>
<line x1="178.149" y1="0.5" x2="178.149" y2="49.6817" stroke="#00A0F3" stroke-linecap="round"/>
<path d="M98.3486 126.25C97.5521 127.046 0.374957 126.25 0.374957 126.25C0.374957 126.25 -0.420357 151.34 0.374957 152.137C1.17027 152.934 11.1255 152.933 11.9247 153.73C12.7239 154.526 10.329 262.059 11.9247 263.652C13.5204 265.245 354.039 265.643 356.027 263.652C358.016 261.661 355.231 154.925 356.027 154.128C356.824 153.332 367.975 153.332 369.17 152.137C370.365 150.942 370.126 127.444 369.17 126.25C368.215 125.055 267.612 127.444 266.816 126.25C266.019 125.055 267.214 96.7777 266.816 95.9813C266.417 95.1849 244.557 97.176 244.159 95.9813C243.761 94.7867 244.956 69.6956 244.159 68.8992C243.363 68.1027 231.813 68.5009 231.813 68.5009C198.358 39.4275 172.073 39.0293 136.184 68.5009C136.184 68.5009 126.227 68.1025 125.033 68.8991C123.838 69.6956 125.829 95.1847 125.033 95.9813C124.236 96.778 99.9417 95.1849 99.1452 95.9813C98.3486 96.7777 99.1452 125.453 98.3486 126.25Z" fill="#00A0F3"/>
<rect x="171.262" y="156.122" width="26.2856" height="89.2118" rx="8" fill="#F6F9FF"/>
<rect x="238.21" y="156.122" width="26.2856" height="89.2118" rx="8" fill="#F6F9FF"/>
<rect x="305.104" y="156.122" width="26.2856" height="89.2118" rx="8" fill="#F6F9FF"/>
<rect x="104.373" y="156.122" width="26.2856" height="89.2118" rx="8" fill="#F6F9FF"/>
<rect x="37.459" y="156.122" width="26.2856" height="89.2118" rx="8" fill="#F6F9FF"/>
</svg>
