<svg width="16" height="17" viewBox="0 0 16 17" fill="none" xmlns="http://www.w3.org/2000/svg">
<path d="M5 4.16455C4.72386 4.16455 4.5 4.38841 4.5 4.66455C4.5 4.94069 4.72386 5.16455 5 5.16455H11C11.2761 5.16455 11.5 4.94069 11.5 4.66455C11.5 4.38841 11.2761 4.16455 11 4.16455H5Z" fill="#F6F9FF"/>
<path d="M4.5 6.66455C4.5 6.38841 4.72386 6.16455 5 6.16455H11C11.2761 6.16455 11.5 6.38841 11.5 6.66455C11.5 6.94069 11.2761 7.16455 11 7.16455H5C4.72386 7.16455 4.5 6.94069 4.5 6.66455Z" fill="#F6F9FF"/>
<path d="M5 8.16455C4.72386 8.16455 4.5 8.38841 4.5 8.66455C4.5 8.94069 4.72386 9.16455 5 9.16455H11C11.2761 9.16455 11.5 8.94069 11.5 8.66455C11.5 8.38841 11.2761 8.16455 11 8.16455H5Z" fill="#F6F9FF"/>
<path d="M5 10.1646C4.72386 10.1646 4.5 10.3884 4.5 10.6646C4.5 10.9407 4.72386 11.1646 5 11.1646H8C8.27614 11.1646 8.5 10.9407 8.5 10.6646C8.5 10.3884 8.27614 10.1646 8 10.1646H5Z" fill="#F6F9FF"/>
<path d="M2 2.16455C2 1.05998 2.89543 0.164551 4 0.164551H12C13.1046 0.164551 14 1.05998 14 2.16455V14.1646C14 15.2691 13.1046 16.1646 12 16.1646H4C2.89543 16.1646 2 15.2691 2 14.1646V2.16455ZM12 1.16455H4C3.44772 1.16455 3 1.61227 3 2.16455V14.1646C3 14.7168 3.44772 15.1646 4 15.1646H12C12.5523 15.1646 13 14.7168 13 14.1646V2.16455C13 1.61227 12.5523 1.16455 12 1.16455Z" fill="#F6F9FF"/>
</svg>
