<svg width="14" height="14" viewBox="0 0 14 14" fill="none" xmlns="http://www.w3.org/2000/svg">
<path fill-rule="evenodd" clip-rule="evenodd" d="M1.80728 9.56915L7.30796 4.06847C7.48068 3.89575 7.75955 3.8957 7.93155 4.06764L9.93369 6.06911C10.104 6.23935 10.1054 6.52021 9.93296 6.69264L4.43228 12.1941C4.25955 12.3669 3.92605 12.5063 3.68665 12.5063H1.92858C1.6839 12.5063 1.49512 12.3122 1.49512 12.0728V10.3148C1.49512 10.0701 1.63488 9.74155 1.80728 9.56915ZM10.8672 1.75375L12.2485 3.13457C12.5898 3.47574 12.5922 4.03496 12.2486 4.37826L11.4249 5.20111C11.2573 5.36854 10.9805 5.3664 10.8085 5.19446L8.80637 3.19299C8.63607 3.02275 8.63142 2.74519 8.79977 2.57683L9.62303 1.75357C9.9715 1.4051 10.5236 1.41018 10.8672 1.75375Z" fill="white"/>
</svg>
